:SAMPLES-PER-SECOND 30
:FULLY-SPECIFIED
:DEGREES
17
root  12.0532 40.8012 -1.66021 173.03 -83.1939 -176.149
RightUpLeg  1.76207 -7.8704 -4.19242
RightLeg  5.08446 -4.87194 3.65548
RightFoot  -2.67132 0.0751109 -1.23032
RightToes  0.00048216 0.542163 -0.142577
Spine  1.9497 0.104744 0.422452
Spine1  4.64796 -0.21125 1.47766
HEad  -0.121868 -0.320518 -1.10109
LeftShoulder1  1.21816 -2.83278 -12.044
LeftArm  -20.4699 11.0418 -9.2189
LeftForeArm  5.82007 -1.04534 -0.510335
LeftHand  -0.25398 0.0180481 5.50724
RightShoulder  0.898799 1.3065 11.56
RightArm  -26.8993 -3.46656 5.12017
RightForeArm  -5.32889 0.722013 1.03148
RightHand  -1.66313 4.80619 -19.1279
LeftUpLeg  9.25186 6.38598 3.50909
LeftLeg  0.799729 22.072 -4.48105
LeftFoot  -6.28855 -0.0140053 1.03704
LeftToes  1.06246e-005 4.65855e-005 -8.18505e-006
18
root  12.0064 40.793 -1.65953 172.693 -83.2112 -175.791
RightUpLeg  1.7562 -7.88604 -4.18577
RightLeg  5.24358 -4.85889 3.67494
RightFoot  -2.8825 0.063038 -1.11679
RightToes  0.00048216 0.542163 -0.142577
Spine  2.05298 0.0627652 0.599302
Spine1  4.58975 -0.197592 1.20633
HEad  0.359058 -0.00996666 -1.16511
LeftShoulder1  1.19816 -2.8056 -11.7857
LeftArm  -20.5789 11.3132 -9.24603
LeftForeArm  5.82333 -1.30962 -0.478459
LeftHand  -0.25398 0.0180481 5.50724
RightShoulder  0.885067 1.18741 11.7597
RightArm  -26.886 -3.67299 4.81227
RightForeArm  -5.56202 0.815632 1.03156
RightHand  -1.63858 4.67963 -19.0806
LeftUpLeg  9.25143 6.4386 3.57557
LeftLeg  0.949318 21.9684 -4.43721
LeftFoot  -6.42899 -0.00648967 0.920217
LeftToes  1.06246e-005 4.65855e-005 -8.18505e-006
19
root  11.9531 40.7762 -1.66056 172.322 -83.2382 -175.409
RightUpLeg  1.6655 -7.8721 -4.14445
RightLeg  5.61977 -4.90068 3.60777
RightFoot  -3.26142 0.0478942 -0.991948
RightToes  0.00048216 0.542163 -0.142577
Spine  2.09474 -0.00173692 0.703751
Spine1  4.65143 -0.249262 1.07477
HEad  1.07576 0.56547 -1.4621
LeftShoulder1  1.18224 -2.73022 -11.756
LeftArm  -20.9335 11.5305 -9.37825
LeftForeArm  5.97723 -1.59181 -0.349867
LeftHand  -0.25398 0.0180481 5.50724
RightShoulder  0.873262 1.11408 11.8077
RightArm  -27.1321 -3.91405 4.80582
RightForeArm  -5.64651 0.961471 0.950718
RightHand  -1.68803 4.8862 -19.26
LeftUpLeg  9.19558 6.49531 3.63568
LeftLeg  1.26495 21.8873 -4.3114
LeftFoot  -6.65569 -0.00349867 0.873729
LeftToes  1.06246e-005 4.65855e-005 -8.18505e-006
20
root  11.8926 40.7477 -1.67043 172.604 -83.3576 -175.702
RightUpLeg  1.46297 -7.99437 -4.15813
RightLeg  6.3449 -4.88546 3.40268
RightFoot  -3.92801 0.0220101 -0.74973
RightToes  0.00048216 0.542163 -0.142577
Spine  2.16491 -0.0869716 0.576336
Spine1  4.71112 -0.37767 1.17662
HEad  2.06332 1.53527 -1.96839
LeftShoulder1  1.19621 -2.72819 -12.0085
LeftArm  -21.5803 11.8577 -9.64923
LeftForeArm  6.01758 -2.15235 -0.146468
LeftHand  -0.25398 0.0180481 5.50724
RightShoulder  0.862059 1.09104 11.6431
RightArm  -27.4173 -4.46275 5.22856
RightForeArm  -5.84003 1.50519 0.926614
RightHand  -1.77971 5.22591 -19.6514
LeftUpLeg  9.10458 6.52038 3.61432
LeftLeg  1.71305 21.7124 -4.13401
LeftFoot  -6.98705 0.00288563 0.7745
LeftToes  1.06246e-005 4.65855e-005 -8.18505e-006
21
root  11.8214 40.7117 -1.69729 173.979 -83.5774 -177.088
RightUpLeg  1.21075 -8.30141 -4.26047
RightLeg  7.25365 -4.71562 3.07356
RightFoot  -4.84557 -0.0235217 -0.159155
RightToes  0.00048216 0.542163 -0.142577
Spine  2.32943 -0.151939 0.238116
Spine1  4.64935 -0.498994 1.37156
HEad  3.28917 2.93413 -2.43561
LeftShoulder1  1.24576 -2.85273 -12.455
LeftArm  -22.5315 12.518 -10.1579
LeftForeArm  5.86149 -3.5451 0.0310726
LeftHand  -0.25398 0.0180481 5.50724
RightShoulder  0.860894 1.10602 11.548
RightArm  -27.3627 -5.62023 5.94901
RightForeArm  -6.61091 2.84087 1.16877
RightHand  -1.88588 5.50134 -20.2792
LeftUpLeg  9.0211 6.50369 3.49862
LeftLeg  2.15174 21.4506 -3.98971
LeftFoot  -7.33539 0.022664 0.467107
LeftToes  1.06246e-005 4.65855e-005 -8.18505e-006
22
root  11.7326 40.6731 -1.73943 175.611 -83.9431 -178.717
RightUpLeg  1.06059 -8.62639 -4.36514
RightLeg  8.05444 -4.63332 2.71659
RightFoot  -5.90217 -0.0753054 0.745733
RightToes  0.00048216 0.542163 -0.142577
Spine  2.59848 -0.193826 -0.0169917
Spine1  4.49309 -0.552326 1.40357
HEad  4.63311 4.5713 -2.71401
LeftShoulder1  1.31222 -3.01974 -13.0273
LeftArm  -23.9609 13.4775 -11.0969
LeftForeArm  6.14751 -6.08222 0.163738
LeftHand  -0.25398 0.0180481 5.50724
RightShoulder  0.892615 1.20731 11.8479
RightArm  -26.5543 -7.7269 6.71124
RightForeArm  -7.94306 5.3668 1.85546
RightHand  -2.03255 5.81061 -21.2193
LeftUpLeg  8.92014 6.50227 3.40841
LeftLeg  2.64445 21.101 -3.85082
LeftFoot  -7.71423 0.0412298 0.180454
LeftToes  1.06246e-005 4.65855e-005 -8.18505e-006
23
root  11.6176 40.6336 -1.79042 176.273 -84.6222 -179.431
RightUpLeg  1.1777 -8.94337 -4.4259
RightLeg  8.67748 -4.91356 2.43357
RightFoot  -7.0229 -0.105741 1.53399
RightToes  0.00048216 0.542163 -0.142577
Spine  2.9847 -0.287059 -0.0108763
Spine1  4.38229 -0.618863 1.2719
HEad  5.90773 6.16865 -2.93316
LeftShoulder1  1.39776 -3.17855 -13.9085
LeftArm  -26.0004 14.5824 -12.4608
LeftForeArm  7.67677 -9.68873 0.165223
LeftHand  -0.25398 0.0180481 5.50724
RightShoulder  0.96579 1.4198 12.5874
RightArm  -24.8975 -10.9879 7.46864
RightForeArm  -8.9505 9.50107 2.9844
RightHand  -2.23819 6.28544 -22.3763
LeftUpLeg  8.80665 6.54442 3.46403
LeftLeg  3.35162 20.423 -3.61512
LeftFoot  -8.24314 0.0470605 0.0940451
LeftToes  1.06246e-005 4.65855e-005 -8.18505e-006
24
root  11.4665 40.5934 -1.85178 176.119 -85.6692 -179.438
RightUpLeg  1.58231 -9.37069 -4.51619
RightLeg  9.23526 -5.46124 2.25606
RightFoot  -8.1194 -0.108953 1.90519
RightToes  0.00048216 0.542163 -0.142577
Spine  3.40314 -0.476682 0.0493469
Spine1  4.49164 -0.811339 1.27787
HEad  6.95472 7.61868 -3.31075
LeftShoulder1  1.53922 -3.38435 -15.4673
LeftArm  -28.804 15.8225 -13.8574
LeftForeArm  11.1836 -14.0538 -0.471929
LeftHand  -0.25398 0.0180481 5.50724
RightShoulder  1.06294 1.655 13.6809
RightArm  -22.5939 -15.1208 8.44265
RightForeArm  -9.08448 15.2545 4.21828
RightHand  -2.46486 6.82116 -23.5215
LeftUpLeg  8.74522 6.55113 3.62395
LeftLeg  4.2333 19.2842 -3.26943
LeftFoot  -8.8952 0.0565613 -0.15537
LeftToes  1.06246e-005 4.65855e-005 -8.18505e-006
25
root  11.2729 40.5476 -1.92577 176.533 -86.8295 179.988
RightUpLeg  2.05106 -9.86346 -4.67067
RightLeg  9.80905 -5.97546 2.15617
RightFoot  -9.07159 -0.101526 2.01552
RightToes  0.00048216 0.542163 -0.142577
Spine  3.62992 -0.692904 -0.00999907
Spine1  4.89783 -1.08212 1.55462
HEad  7.7892 8.99067 -3.89341
LeftShoulder1  1.75273 -3.6366 -17.8566
LeftArm  -31.6464 17.1645 -14.9505
LeftForeArm  16.5799 -18.5963 -2.1118
LeftHand  -0.25398 0.0180481 5.50724
RightShoulder  1.17612 1.8441 15.2048
RightArm  -20.2381 -19.4004 9.76154
RightForeArm  -8.52853 21.6486 5.17139
RightHand  -2.66396 7.27079 -24.4807
LeftUpLeg  8.65165 6.58665 3.76327
LeftLeg  5.2636 17.9761 -2.81018
LeftFoot  -9.55865 0.0691568 -0.759421
LeftToes  1.06246e-005 4.65855e-005 -8.18505e-006
26
root  11.0437 40.48 -1.99742 177.304 -87.8093 179.223
RightUpLeg  2.27037 -10.3597 -4.79102
RightLeg  10.5269 -6.29648 2.11211
RightFoot  -9.89238 -0.0931704 2.0568
RightToes  0.00048216 0.542163 -0.142577
Spine  3.57254 -0.859038 0.0836239
Spine1  5.47193 -1.29061 1.88298
HEad  8.55359 10.3201 -4.59992
LeftShoulder1  2.01204 -3.84544 -20.8956
LeftArm  -31.9626 18.3785 -15.8974
LeftForeArm  21.4566 -22.7208 -3.65903
LeftHand  -0.25398 0.0180481 5.50724
RightShoulder  1.33605 2.07453 17.3338
RightArm  -19.3431 -23.1177 11.2009
RightForeArm  -6.39115 26.9722 6.12042
RightHand  -2.81783 7.65821 -25.1016
LeftUpLeg  8.22192 7.32871 3.90672
LeftLeg  6.81205 16.3619 -2.00564
LeftFoot  -10.4026 0.0727986 -1.20531
LeftToes  1.06246e-005 4.65855e-005 -8.18505e-006
27
root  10.8012 40.369 -2.0412 167.182 -88.6254 -170.504
RightUpLeg  2.15303 -11.0568 -4.82004
RightLeg  11.6428 -6.41357 2.14477
RightFoot  -10.7956 -0.082927 2.01204
RightToes  0.00048216 0.542163 -0.142577
Spine  3.4735 -1.02409 0.634866
Spine1  6.03908 -1.4509 2.20245
HEad  9.24288 11.5285 -5.42261
LeftShoulder1  2.32648 -4.06891 -24.417
LeftArm  -29.9638 19.4452 -16.9259
LeftForeArm  24.9471 -26.1617 -4.29747
LeftHand  -0.25398 0.0180481 5.50724
RightShoulder  1.58022 2.45926 20.0815
RightArm  -19.3375 -25.6786 12.6366
RightForeArm  -3.67975 29.9254 6.7124
RightHand  -2.91792 7.99803 -25.3261
LeftUpLeg  7.15349 9.57516 4.17385
LeftLeg  9.44628 13.4467 -0.5254
LeftFoot  -11.7336 0.0648555 -1.46422
LeftToes  1.06246e-005 4.65855e-005 -8.18505e-006
28
root  10.5674 40.2205 -2.04873 161.981 -89.6273 -165.214
RightUpLeg  2.00184 -12.0879 -4.91618
RightLeg  13.106 -6.37271 2.27233
RightFoot  -11.8858 -0.0705807 2.0518
RightToes  0.00048216 0.542163 -0.142577
Spine  3.66446 -1.27857 1.36376
Spine1  6.62852 -1.72909 2.80895
HEad  9.65109 12.4983 -6.40214
LeftShoulder1  2.78431 -4.56247 -28.335
LeftArm  -27.9397 20.6344 -18.1645
LeftForeArm  27.5997 -28.6836 -4.69856
LeftHand  -0.25398 0.0180481 5.50724
RightShoulder  1.91149 2.99258 23.198
RightArm  -19.9199 -26.5091 14.275
RightForeArm  -1.96272 29.5295 6.52405
RightHand  -3.00152 8.34386 -25.3966
LeftUpLeg  5.37319 12.5994 4.41393
LeftLeg  13.3384 9.34365 1.48921
LeftFoot  -13.1642 0.0361377 -2.59453
LeftToes  1.06246e-005 4.65855e-005 -8.18505e-006
